<svg fill="none" height="24" viewBox="0 0 24 24" width="24" xmlns="http://www.w3.org/2000/svg"><path d="m15.0005 2.5h-6.00001c-2.481 0-4.5 2.019-4.5 4.5v12.998c0 .56.30798 1.069.80398 1.329.495.26 1.09002.223 1.55002-.096l4.85901-3.366c.171-.119.399-.119.569 0l4.863 3.367c.256.178.555.268.854.268.238 0 .477-.057.696-.172.496-.26.804-.769.804-1.329v-12.999c.001-2.482-2.018-4.5-4.499-4.5zm3.5 17.498c0 .273-.188.401-.268.443-.082.042-.293.123-.517-.032l-4.863-3.367c-.255-.177-.554-.265-.854-.265s-.599.088-.854.266l-4.85901 3.366c-.156.108-.349.12-.517.032s-.268-.253-.268-.443v-12.998c0-1.93 1.57-3.5 3.5-3.5h6.00001c1.93 0 3.5 1.57 3.5 3.5z" fill="#41416e"/></svg>