<svg id="Livello_1" data-name="Livello 1" xmlns="http://www.w3.org/2000/svg" viewBox="0 0 246 315.92"><defs><style>.cls-1{fill:#878787;}</style></defs><path class="cls-1" d="M4.63,315.35A7.51,7.51,0,0,1,0,308.42V77.5A7.5,7.5,0,0,1,7.5,70h230a7.5,7.5,0,0,1,7.5,7.5V308.42a7.5,7.5,0,0,1-12.8,5.3L122.5,204,12.8,313.72a7.46,7.46,0,0,1-5.3,2.2A7.57,7.57,0,0,1,4.63,315.35ZM127.8,188.12,230,290.31V85H15V290.31L117.2,188.12a7.48,7.48,0,0,1,10.6,0Z"/><path class="cls-1" d="M0,47.5V7.5A7.5,7.5,0,0,1,7.5,0h231A7.5,7.5,0,0,1,246,7.5v40a7.5,7.5,0,0,1-7.5,7.5H7.5A7.5,7.5,0,0,1,0,47.5ZM231,15H15V40H231Z"/></svg>